<svg width="1280" height="360" viewBox="0 0 1280 360" fill="none" xmlns="http://www.w3.org/2000/svg" role="img" aria-labelledby="title desc">
<title id="title">KruComCraft Horizontal Logo</title>
<desc id="desc">Advanced KruComCraft logo with K monogram, code bracket, digital circuit nodes, and modern education technology identity.</desc>
<defs>
<linearGradient id="kc_primary" x1="80" y1="70" x2="290" y2="290" gradientUnits="userSpaceOnUse"><stop offset="0" stop-color="#2563EB"/><stop offset="0.46" stop-color="#2F6DF6"/><stop offset="1" stop-color="#7C3AED"/></linearGradient>
<linearGradient id="kc_arc" x1="78" y1="86" x2="278" y2="282" gradientUnits="userSpaceOnUse"><stop offset="0" stop-color="#2563EB"/><stop offset="0.58" stop-color="#0891B2"/><stop offset="1" stop-color="#059669"/></linearGradient>
<filter id="kc_shadow" x="38" y="38" width="292" height="292" filterUnits="userSpaceOnUse" color-interpolation-filters="sRGB"><feDropShadow dx="0" dy="22" stdDeviation="24" flood-color="#2563EB" flood-opacity="0.18"/></filter>
</defs>
<rect width="1280" height="360" rx="34" fill="#FFFFFF"/>
<g filter="url(#kc_shadow)">
<circle cx="185" cy="180" r="112" fill="#FFFFFF" stroke="#E8EDF7" stroke-width="2"/>
<path d="M267 97C247 76 218 64 185 64C121 64 69 116 69 180C69 244 121 296 185 296C221 296 253 280 274 254" stroke="url(#kc_arc)" stroke-width="18" stroke-linecap="round"/>
<path d="M92 143H50" stroke="#2563EB" stroke-width="7" stroke-linecap="round"/><path d="M92 180H39" stroke="#7C3AED" stroke-width="7" stroke-linecap="round"/><path d="M92 217H50" stroke="#0891B2" stroke-width="7" stroke-linecap="round"/>
<circle cx="39" cy="143" r="10" fill="#FFFFFF" stroke="#2563EB" stroke-width="7"/><circle cx="29" cy="180" r="10" fill="#FFFFFF" stroke="#7C3AED" stroke-width="7"/><circle cx="39" cy="217" r="10" fill="#FFFFFF" stroke="#0891B2" stroke-width="7"/>
<path d="M62 143V128H85" stroke="#2563EB" stroke-width="5" stroke-linecap="round" stroke-linejoin="round"/><circle cx="92" cy="128" r="5" fill="#2563EB"/>
<path d="M65 217V232H88" stroke="#0891B2" stroke-width="5" stroke-linecap="round" stroke-linejoin="round"/><circle cx="95" cy="232" r="5" fill="#0891B2"/>
<path d="M135 106V254" stroke="url(#kc_primary)" stroke-width="42" stroke-linecap="round"/>
<path d="M149 179L232 103" stroke="url(#kc_primary)" stroke-width="42" stroke-linecap="round"/>
<path d="M150 181L236 256" stroke="url(#kc_primary)" stroke-width="42" stroke-linecap="round"/>
<path d="M256 136L298 180L256 224" stroke="#7C3AED" stroke-width="18" stroke-linecap="round" stroke-linejoin="round"/>
<circle cx="232" cy="180" r="18" fill="#7C3AED"/>
</g>
<path d="M350 92V268" stroke="#CBD5E1" stroke-width="2"/>
<text x="385" y="168" font-family="Kanit, Sarabun, Arial, sans-serif" font-size="78" font-weight="700" letter-spacing="-2.2" fill="#0F172A">Kru</text>
<text x="505" y="168" font-family="Kanit, Sarabun, Arial, sans-serif" font-size="78" font-weight="700" letter-spacing="-2.2" fill="#2563EB">Com</text>
<text x="682" y="168" font-family="Kanit, Sarabun, Arial, sans-serif" font-size="78" font-weight="700" letter-spacing="-2.2" fill="#7C3AED">Craft</text>
<text x="390" y="222" font-family="Kanit, Sarabun, Arial, sans-serif" font-size="24" font-weight="500" letter-spacing="10" fill="#334155">CODE</text>
<circle cx="526" cy="213" r="5" fill="#7C3AED"/>
<text x="552" y="222" font-family="Kanit, Sarabun, Arial, sans-serif" font-size="24" font-weight="500" letter-spacing="10" fill="#334155">CREATE</text>
<circle cx="750" cy="213" r="5" fill="#0891B2"/>
<text x="776" y="222" font-family="Kanit, Sarabun, Arial, sans-serif" font-size="24" font-weight="500" letter-spacing="10" fill="#334155">CONNECT</text>
<text x="390" y="266" font-family="Sarabun, Kanit, Arial, sans-serif" font-size="28" font-weight="400" fill="#64748B">สร้างสรรค์การเรียนรู้คอมพิวเตอร์ยุคใหม่</text>
</svg>